<svg width="32" height="32" xmlns="http://www.w3.org/2000/svg"><g fill="none" fill-rule="evenodd"><path d="M0 0h32v32H0z"/><path d="m28 31-6.563-6.304.788 2.521h-16.1C4.399 27.217 3 25.807 3 24.065V5.152C3 3.412 4.4 2 6.125 2h18.75C26.601 2 28 3.411 28 5.152V31M15.5 9.313c-3.35 0-5.7 1.45-5.7 1.45 1.288-1.16 3.537-1.828 3.537-1.828l-.212-.215c-2.113.038-4.025 1.513-4.025 1.513-2.15 4.527-2.012 8.436-2.012 8.436 1.75 2.282 4.35 2.118 4.35 2.118l.887-1.135c-1.562-.34-2.55-1.74-2.55-1.74s2.35 1.614 5.725 1.614c3.375 0 5.725-1.614 5.725-1.614s-.988 1.4-2.55 1.74l.887 1.135s2.6.164 4.35-2.118c0 0 .138-3.909-2.012-8.436 0 0-1.912-1.475-4.025-1.513l-.212.215s2.25.668 3.537 1.828c0 0-2.35-1.45-5.7-1.45m-2.587 4.779c.812 0 1.474.718 1.462 1.601 0 .87-.65 1.601-1.462 1.601-.8 0-1.45-.731-1.45-1.601 0-.883.637-1.601 1.45-1.601m5.212 0c.813 0 1.462.718 1.462 1.601 0 .87-.65 1.601-1.462 1.601-.8 0-1.45-.731-1.45-1.601 0-.883.637-1.601 1.45-1.601Z" fill="#51E0CF" fill-rule="nonzero"/></g></svg>