<svg width="32" height="32" xmlns="http://www.w3.org/2000/svg"><g fill="none" fill-rule="evenodd"><path d="M0 0h32v32H0z"/><path d="m27.27 10.655-9.502 9.502a2.506 2.506 0 0 1-3.536 0L4.73 10.655c-.41-.41-.648-.93-.71-1.465-.013.103-.02.205-.02.31v14C4 24.875 5.125 26 6.5 26h19c1.375 0 2.5-1.125 2.5-2.5v-14c0-.105-.007-.207-.02-.31a2.496 2.496 0 0 1-.71 1.465Zm-9.502 7.683 9.962-9.963A2.504 2.504 0 0 0 25.5 7h-19c-.97 0-1.818.56-2.23 1.375l9.962 9.963a2.506 2.506 0 0 0 3.536 0Z" fill="#51E0CF" fill-rule="nonzero"/></g></svg>