<?xml version="1.0" encoding="utf-8"?>
<!-- Generator: Adobe Illustrator 27.0.0, SVG Export Plug-In . SVG Version: 6.00 Build 0)  -->
<svg version="1.1" id="图层_1" xmlns="http://www.w3.org/2000/svg" xmlns:xlink="http://www.w3.org/1999/xlink" x="0px" y="0px"
	 viewBox="0 0 131.4 139.6" style="enable-background:new 0 0 131.4 139.6;" xml:space="preserve">
<style type="text/css">
	.st0{fill:#43A9BE;}
	.st1{fill:#2E6573;}
	.st2{fill:#80CFD5;}
	.st3{fill:#1D4048;}
	.st4{fill:#47C0C5;}
</style>
<g>
	<path class="st0" d="M97,37.4c0,0.1,0,0.3-0.2,0.4l-10.9,9.6L74.2,16.2c-0.1-0.3,0.1-0.5,0.2-0.6c0.1,0,0.2-0.1,0.3-0.1
		c0.1,0,0.2,0,0.3,0.1l21.8,21.3l0,0C97,37.1,97,37.3,97,37.4z"/>
	<path class="st1" d="M78.7,93.6L75.1,123c-0.1,0.4-0.4,0.7-0.8,0.8c-0.5,0.2-1,0.2-1.5-0.1l-54-34.6c-0.3-0.2-0.3-0.5-0.2-0.6
		c0-0.1,0.1-0.3,0.4-0.3c0,0,0.1,0,0.2,0L78.7,93.6z"/>
	<path class="st2" d="M84.3,49.3L79,91.4h0L19.4,86c-0.1,0-0.2,0-0.2,0c-0.5-0.1-0.8-0.4-1-0.9c-0.2-0.5-0.1-1.1,0.2-1.5l52.9-66.8
		c0.1-0.2,0.3-0.2,0.4-0.2c0,0,0.1,0,0.1,0c0.1,0,0.3,0.1,0.4,0.3L84.3,49.3z"/>
	<path class="st3" d="M111.8,97.5L78.1,124c-0.2,0.2-0.5,0.1-0.6,0c-0.1-0.1-0.3-0.2-0.3-0.5l0-0.1c0-0.2,0.1-0.3,0.1-0.5l3.6-29.1
		l1.1,0.1l29.6,2.7c0.3,0,0.4,0.3,0.5,0.4C112,97.1,112.1,97.3,111.8,97.5z"/>
	<path class="st4" d="M113.1,93.8c-0.3,0.4-0.8,0.6-1.3,0.5l-29.9-2.7l-0.7-0.1l2.3-18l0.2-1.3l2.9-22.6l11.3-9.9
		c0.2-0.2,0.4-0.1,0.5-0.1c0.1,0,0.3,0.1,0.4,0.4l14.8,52.3C113.5,93,113.4,93.5,113.1,93.8z"/>
</g>
</svg>
