<svg width="160" height="80" xmlns="http://www.w3.org/2000/svg" xmlns:xlink="http://www.w3.org/1999/xlink"><defs><path id="a" d="M0 0h37.72v43.051H0z"/><path id="c" d="M0 0h15.962v22.458H0z"/></defs><g fill="none" fill-rule="evenodd"><path d="M0 0h160v80H0z"/><path d="M53.119 21.024a.291.291 0 0 1-.101.223l-6.213 5.503-6.676-17.926c-.072-.189.037-.299.107-.348.04-.027.1-.06.172-.06a.27.27 0 0 1 .178.07l12.406 12.29.026.023c.088.079.1.174.1.225" fill="#43A9BE"/><path d="m42.695 53.397-2.063 16.925a.828.828 0 0 1-.443.489.822.822 0 0 1-.826-.066L8.649 50.822c-.166-.11-.145-.263-.116-.346.024-.068.08-.172.215-.193.027.004.056.008.086.01l33.86 3.104Z" fill="#2E6573"/><g transform="translate(8.173 9.081)"><mask id="b" fill="#fff"><use xlink:href="#a"/></mask><path d="m37.72 18.828-3.041 24.223h-.002L.778 39.93a1.406 1.406 0 0 0-.132-.006.827.827 0 0 1-.575-.493.854.854 0 0 1 .113-.87L30.273.112a.283.283 0 0 1 .277-.109.28.28 0 0 1 .228.19l6.941 18.634Z" fill="#80CFD5" mask="url(#b)"/></g><path d="M61.54 55.646 42.333 70.912a.277.277 0 0 1-.326.026.284.284 0 0 1-.147-.295l.009-.064c.025-.093.042-.191.054-.289l2.027-16.779.605.056 16.831 1.55c.18.015.24.153.256.21a.288.288 0 0 1-.1.319" fill="#1D4048"/><path d="M62.246 53.537a.828.828 0 0 1-.729.305L44.51 52.284l-.403-.036 1.298-10.359.093-.739 1.632-12.996 6.41-5.677a.28.28 0 0 1 .277-.062.282.282 0 0 1 .2.204l8.392 30.136a.856.856 0 0 1-.163.782" fill="#47C0C5"/><path d="M77.015 33.028h-8.017c-.057-.281-.1-.591-.128-.929a10.666 10.666 0 0 1 0-1.92c.028-.324.07-.627.128-.908h20.407c.057.281.1.577.129.886.028.31.043.62.043.93 0 .31-.015.64-.043.991a8.13 8.13 0 0 1-.129.95h-8.017v26.595c-.657.085-1.372.127-2.143.127-.8 0-1.544-.042-2.23-.127V33.028ZM89.577 37.464c.301-.057.588-.1.863-.13.273-.027.56-.042.862-.042.301 0 .602.015.904.043.301.029.575.072.821.13.083.43.165.998.247 1.702.082.704.123 1.3.123 1.789a8.775 8.775 0 0 1 2.28-2.544c.945-.718 2.156-1.077 3.635-1.077.22 0 .445.007.678.022.232.014.431.036.596.064.054.259.095.532.123.82a9.718 9.718 0 0 1-.02 1.982c-.042.374-.09.733-.144 1.078a2.672 2.672 0 0 0-.678-.087h-.555c-.74 0-1.445.108-2.115.324-.672.215-1.274.596-1.808 1.142-.534.546-.959 1.293-1.273 2.242-.315.948-.472 2.17-.472 3.664v10.992c-.302.057-.637.1-1.007.129-.37.028-.705.043-1.006.043a13.226 13.226 0 0 1-2.054-.172V37.464ZM104.154 32.02a8.906 8.906 0 0 1-.096-1.077c-.014-.387-.02-.732-.02-1.037 0-.304.006-.65.02-1.037.012-.386.044-.732.096-1.036a14.494 14.494 0 0 1 2.077-.166c.282 0 .615.014 1 .041.384.028.73.07 1.038.125.051.304.083.65.096 1.036.013.388.02.733.02 1.037 0 .305-.007.65-.02 1.037a9.105 9.105 0 0 1-.096 1.078 9.768 9.768 0 0 1-1.019.124c-.372.028-.699.042-.981.042-.308 0-.654-.014-1.038-.042a11.465 11.465 0 0 1-1.077-.124Zm.846 7.921h-2.5a5.501 5.501 0 0 1-.115-.767 9.534 9.534 0 0 1 0-1.7c.025-.29.063-.546.115-.767h6.23V57.98a8.483 8.483 0 0 1-.942.124c-.346.028-.66.042-.942.042-.257 0-.558-.014-.904-.042a8.458 8.458 0 0 1-.942-.124V39.941ZM128.416 49.169a40.757 40.757 0 0 0-1.669-.167 21.434 21.434 0 0 0-1.711-.084c-1.815 0-3.198.321-4.148.962-.952.642-1.427 1.617-1.427 2.927 0 .837.16 1.492.483 1.966.321.475.724.836 1.207 1.087.483.251 1.016.405 1.602.46a17.45 17.45 0 0 0 1.668.084c.673 0 1.368-.034 2.085-.104.717-.07 1.353-.174 1.91-.314V49.17Zm0-4.057c0-1.645-.44-2.787-1.317-3.43-.878-.64-2.151-.96-3.82-.96-1.024 0-1.982.076-2.874.229-.893.154-1.763.356-2.612.607-.556-.92-.834-2.022-.834-3.304a21.081 21.081 0 0 1 3.292-.711c1.2-.167 2.355-.251 3.468-.251 2.926 0 5.15.634 6.672 1.903 1.521 1.269 2.282 3.297 2.282 6.085v13.424a71.353 71.353 0 0 1-3.73.69 28.02 28.02 0 0 1-4.478.356c-1.434 0-2.729-.126-3.885-.377-1.156-.25-2.136-.654-2.94-1.212a5.69 5.69 0 0 1-1.866-2.133c-.44-.864-.659-1.91-.659-3.137 0-1.198.256-2.251.769-3.157a6.7 6.7 0 0 1 2.085-2.259c.877-.6 1.887-1.045 3.028-1.338a14.44 14.44 0 0 1 3.6-.44c.936 0 1.704.022 2.304.064.6.041 1.104.09 1.515.146v-.795Z" fill="#FFF"/><g transform="translate(135.865 37.292)"><mask id="d" fill="#fff"><use xlink:href="#c"/></mask><path d="M1.017 18.067c.796.307 1.673.55 2.63.732.958.181 1.909.272 2.853.272.677 0 1.326-.07 1.945-.21a5.319 5.319 0 0 0 1.614-.627c.457-.278.825-.62 1.105-1.025.28-.403.42-.857.42-1.359 0-.557-.11-1.017-.331-1.38a3 3 0 0 0-.885-.92 6 6 0 0 0-1.282-.648 25.135 25.135 0 0 0-1.57-.523l-1.547-.544c-1.887-.669-3.257-1.422-4.112-2.258C1.002 8.741.575 7.612.575 6.189c0-1.895.714-3.4 2.144-4.516C4.15.558 6.25 0 9.02 0c1.15 0 2.277.105 3.382.314 1.106.209 2.07.453 2.896.732a9.683 9.683 0 0 1-.331 1.672 9.294 9.294 0 0 1-.597 1.548 23.864 23.864 0 0 0-2.322-.649c-.899-.209-1.864-.313-2.895-.313-1.091 0-2.056.182-2.896.544-.84.362-1.26 1.003-1.26 1.923 0 .475.102.878.309 1.213.206.335.486.621.84.858a5.68 5.68 0 0 0 1.216.606c.457.167.95.335 1.48.502l1.947.627c.707.224 1.377.488 2.011.795.634.307 1.179.69 1.636 1.15.457.46.825 1.018 1.106 1.673.28.655.42 1.443.42 2.363 0 1.031-.221 1.972-.664 2.823a6.295 6.295 0 0 1-1.879 2.174c-.81.6-1.79 1.067-2.94 1.401-1.15.335-2.417.502-3.802.502-1.415 0-2.653-.09-3.714-.272A19.733 19.733 0 0 1 0 21.454a7.92 7.92 0 0 1 .376-1.693c.191-.571.405-1.136.641-1.694" fill="#FFF" mask="url(#d)"/></g></g></svg>