<svg width="32" height="32" xmlns="http://www.w3.org/2000/svg"><g fill="none" fill-rule="evenodd"><path d="M0 0h32v32H0z"/><path d="M29 16.325c0 2.904-.827 5.516-2.48 7.835-1.653 2.32-3.789 3.924-6.407 4.814-.304.059-.528.018-.668-.12a.7.7 0 0 1-.212-.52V24.67c0-1.122-.294-1.943-.88-2.463a11.336 11.336 0 0 0 1.735-.312 6.858 6.858 0 0 0 1.59-.676 4.758 4.758 0 0 0 1.372-1.155c.366-.457.665-1.064.897-1.822.231-.758.347-1.628.347-2.61 0-1.4-.446-2.593-1.336-3.576.416-1.053.371-2.232-.137-3.54-.316-.104-.772-.039-1.37.192a9.022 9.022 0 0 0-1.558.763l-.643.416a11.74 11.74 0 0 0-3.25-.45 11.74 11.74 0 0 0-3.25.45 14.976 14.976 0 0 0-.719-.467c-.299-.186-.77-.408-1.414-.668-.643-.26-1.129-.338-1.456-.234-.496 1.306-.536 2.485-.117 3.538-.892.983-1.34 2.175-1.34 3.575 0 .983.118 1.85.35 2.603.23.751.527 1.358.887 1.821.373.473.836.868 1.362 1.162a6.81 6.81 0 0 0 1.592.676c.513.14 1.092.245 1.735.314-.451.416-.728 1.012-.83 1.787a3.3 3.3 0 0 1-.761.26c-.318.062-.641.092-.965.087-.373 0-.74-.125-1.109-.373-.366-.25-.68-.61-.94-1.084a2.773 2.773 0 0 0-.82-.902c-.333-.232-.612-.37-.838-.416l-.338-.052c-.237 0-.4.026-.492.078-.09.052-.117.117-.084.199a.96.96 0 0 0 .152.243c.065.078.14.148.22.208l.118.085c.25.117.494.337.737.66.243.325.421.62.533.885l.169.399c.147.44.395.796.746 1.067.35.273.728.446 1.134.52a6.97 6.97 0 0 0 1.176.122c.377.006.692-.014.94-.06l.389-.07c0 .44.003.955.009 1.545l.008.936a.68.68 0 0 1-.221.52c-.146.14-.372.18-.676.122-2.618-.89-4.754-2.496-6.407-4.814C3.827 21.841 3 19.23 3 16.325c0-2.418.581-4.646 1.743-6.688a13.108 13.108 0 0 1 4.732-4.85A12.48 12.48 0 0 1 16 3a12.48 12.48 0 0 1 6.526 1.788 13.108 13.108 0 0 1 4.73 4.849C28.42 11.677 29 13.908 29 16.325Z" fill="#51E0CF" fill-rule="nonzero"/></g></svg>