<svg width="40" height="40" xmlns="http://www.w3.org/2000/svg"><path d="M11.667 30h11.666v-5a3.333 3.333 0 0 1 3.334-3.333h5V10a3.333 3.333 0 0 1-3.334-3.333H16.667v5A3.333 3.333 0 0 1 13.333 15h-10A3.333 3.333 0 0 1 0 11.667V5a3.333 3.333 0 0 1 3.333-3.333h10A3.333 3.333 0 0 1 16.667 5H28.78a3.333 3.333 0 1 1 4.553 4.553v12.114h3.334A3.333 3.333 0 0 1 40 25v6.667A3.333 3.333 0 0 1 36.667 35h-10a3.333 3.333 0 0 1-3.334-3.333H11.22a3.333 3.333 0 1 1-4.553-4.554v-8.78h-2.5a.833.833 0 1 1 0-1.666H12.5a.833.833 0 1 1 0 1.666H8.333v8.334A3.333 3.333 0 0 1 11.667 30ZM3.333 3.333c-.92 0-1.666.747-1.666 1.667v6.667c0 .92.746 1.666 1.666 1.666h10c.92 0 1.667-.746 1.667-1.666V5a1.667 1.667 0 0 0-1.667-1.667h-10Zm23.334 20c-.92 0-1.667.747-1.667 1.667v6.667c0 .92.746 1.666 1.667 1.666h10c.92 0 1.666-.746 1.666-1.666V25c0-.92-.746-1.667-1.666-1.667h-10Zm.833 13.334h8.333a.833.833 0 1 1 0 1.666H27.5a.833.833 0 1 1 0-1.666Zm4.167-28.334A1.667 1.667 0 1 0 31.683 5a1.667 1.667 0 0 0-.016 3.333ZM8.333 31.667a1.667 1.667 0 1 0 0-3.334 1.667 1.667 0 0 0 0 3.334Z" fill="#FFF" fill-rule="nonzero"/></svg>