<svg width="40" height="40" xmlns="http://www.w3.org/2000/svg"><g fill="#FFF" fill-rule="nonzero"><path d="M38.75 20.016c0 10.262-8.385 18.613-18.69 18.613-3.211 0-6.306-.8-9.066-2.33l.634 1.474a.7.7 0 0 1-.647.977.7.7 0 0 1-.647-.428L8.806 34.76a.749.749 0 0 1-.056-.255v-.082a.708.708 0 0 1 1.12-.51 17.205 17.205 0 0 0 10.195 3.315c9.527 0 17.279-7.72 17.279-17.208 0-3.683-1.15-7.192-3.325-10.153a.702.702 0 0 1 .152-.982.708.708 0 0 1 .985.152 18.439 18.439 0 0 1 3.594 10.979ZM32.335 6.573a.718.718 0 0 1-1.007.096 17.56 17.56 0 0 0-11.137-3.992C10.536 2.677 2.68 10.52 2.68 20.16c0 4.075 1.434 8.04 4.038 11.167a.715.715 0 0 1-1.1.914A18.936 18.936 0 0 1 1.25 20.16c0-10.426 8.498-18.91 18.94-18.91 3.546 0 7.021 1.001 10.003 2.854l-.396-1.01a.712.712 0 0 1 .405-.926.714.714 0 0 1 .928.404l1.227 3.118a.712.712 0 0 1-.022.883Z"/><path d="M14.77 21.675c-.004 0-.008-.007-.012-.007a1.998 1.998 0 0 0 .195.125c-.058-.042-.121-.076-.183-.118Z"/><path d="M27.21 22.185a7.65 7.65 0 0 0-1.35-.64.718.718 0 0 0-.495 0c-1.436.53-3.342.821-5.36.821-1.51 0-3.071-.155-4.542-.563-.767-.215-2.803-.762-2.803-1.805 0-.463.677-1.027 1.747-1.46 1.57.551 3.26.757 4.92.804 1.704.05 3.455-.072 5.12-.471.387-.093.775-.207 1.155-.333.086-.03.172-.059.259-.092.517-.19.966-.404 1.35-.64 1.004-.614 1.539-1.367 1.539-2.191 0-2.428-4.507-3.74-8.75-3.74-4.24 0-8.75 1.312-8.75 3.74 0 .824.54 1.577 1.54 2.191-1.005.614-1.54 1.367-1.54 2.192 0 .824.54 1.577 1.54 2.192-1.005.614-1.54 1.367-1.54 2.191 0 2.432 4.507 3.744 8.75 3.744 4.24 0 8.75-1.312 8.75-3.744 0-.829-.54-1.582-1.54-2.196ZM12.656 15.61c0-.967 2.863-2.372 7.348-2.372 4.485 0 7.344 1.405 7.344 2.372 0 .497-.78 1.107-1.983 1.553-1.436.53-3.342.82-5.36.82-.134 0-.268 0-.397-.004-.056 0-.108 0-.164-.004a22.129 22.129 0 0 1-.755-.034l-.172-.013a19.235 19.235 0 0 1-.725-.067l-.177-.021c-.06-.008-.116-.013-.172-.021l-.173-.025-.172-.026-.168-.025a45.543 45.543 0 0 1-.496-.093c-.056-.012-.108-.02-.164-.033-.052-.013-.104-.021-.156-.034l-.314-.075a6.803 6.803 0 0 1-.595-.164c-.048-.013-.095-.03-.143-.047-.047-.017-.09-.03-.138-.046-.004 0-.008-.004-.013-.004-.043-.013-.086-.03-.13-.046a4.466 4.466 0 0 1-.133-.051c-1.212-.433-1.992-1.039-1.992-1.54ZM20 26.75c-4.485 0-7.348-1.41-7.348-2.377 0-.467.677-1.027 1.746-1.46.095.034.194.063.293.097 1.609.5 3.312.698 4.999.72 1.673.02 3.368-.068 4.98-.53.087-.026.177-.051.263-.08.026-.01.048-.018.074-.022.108-.034.215-.067.328-.097.077-.02.19-.088.271-.075.022.004.039.012.06.02.428.19.854.396 1.212.695.216.18.466.437.466.736.004.967-2.859 2.372-7.344 2.372Z"/><path d="M27.21 17.802a7.65 7.65 0 0 1-1.35.64c-.086.029-.172.063-.258.092 1.07.433 1.746.997 1.746 1.46 0 .496-.78 1.106-1.983 1.552a.718.718 0 0 1 .496 0c.517.19.966.404 1.35.64 1.004-.615 1.539-1.368 1.539-2.192 0-.825-.54-1.578-1.54-2.192Zm-12.808 5.116c.1.046.194.086.298.132a6.732 6.732 0 0 0-.298-.132c0-.006 0 0 0 0Zm1.242-5.436Z"/></g></svg>