<svg width="40" height="40" xmlns="http://www.w3.org/2000/svg"><path d="M18.623 39.042a27.71 27.71 0 0 1-12.287-12.15A34.836 34.836 0 0 1 2.68 15.687a40.935 40.935 0 0 1-.47-7.444c.009-.325.03-.654.048-.98L2.331 5.9l1.397-.071c.512-.025 1.01-.05 1.504-.086A27.433 27.433 0 0 0 16.758 2.23a51.614 51.614 0 0 0 1.855-1.151 1.228 1.228 0 0 1 1.535.087 27.448 27.448 0 0 0 15.04 4.667l.942.09.218.946c.02.196.036.387.046.582a38.887 38.887 0 0 1-2.034 14.732l-1.768-.6a37.089 37.089 0 0 0 1.942-13.9 29.371 29.371 0 0 1-15.227-4.84 32.27 32.27 0 0 1-1.624 1A29.28 29.28 0 0 1 5.371 7.609c-.42.03-.836.052-1.266.073-.01.206-.021.41-.028.614-.066 2.38.084 4.76.45 7.113a32.984 32.984 0 0 0 3.47 10.62 25.888 25.888 0 0 0 11.329 11.278 25.004 25.004 0 0 0 4.897-3.197l1.197 1.433a26.51 26.51 0 0 1-5.46 3.53 1.23 1.23 0 0 1-.615.154 1.43 1.43 0 0 1-.722-.185Zm.46-1.544.125-.093-.122.093h-.003Zm.497-.042-.098-.05.098.05Zm-.45-34.688a1.209 1.209 0 0 1-.125-.125.372.372 0 0 0 .125.125Zm.461-.06a.669.669 0 0 0 .125-.125l-.125.125Zm14.155 32.025a7.016 7.016 0 1 1 2.898-5.678 6.969 6.969 0 0 1-1.544 4.38l2.39 2.39-1.319 1.327-2.425-2.419Zm-9.349-5.678a5.187 5.187 0 1 0 5.187-5.155 5.178 5.178 0 0 0-5.188 5.17l.001-.015ZM10.05 22.358l.959-1.604 7.467 4.474 8.958-13.583 1.56 1.028-9.942 15.078-9.002-5.393Z" fill="#FFF" fill-rule="nonzero"/></svg>