<svg width="42" height="40" xmlns="http://www.w3.org/2000/svg"><path d="M25.5 31.813h.938v6.25H25.5v-6.25Zm-9.875 0h.938v6.25h-.938v-6.25ZM30.063 8.875c1.375 0 2.562-1.125 2.562-2.563 0-1.437-1.188-2.562-2.563-2.562-1.375 0-2.562 1.125-2.562 2.563 0 1.437 1.188 2.562 2.563 2.562Zm0-4.188c.875 0 1.625.75 1.625 1.625s-.75 1.625-1.625 1.625-1.625-.75-1.625-1.625.75-1.625 1.625-1.625ZM11.938 8.875c1.374 0 2.562-1.125 2.562-2.563 0-1.437-1.188-2.562-2.563-2.562-1.374 0-2.562 1.125-2.562 2.563 0 1.437 1.188 2.562 2.563 2.562Zm0-4.188c.874 0 1.624.75 1.624 1.625s-.75 1.625-1.624 1.625c-.876 0-1.626-.75-1.626-1.625s.75-1.625 1.626-1.625ZM21 7.063c1.375 0 2.563-1.125 2.563-2.562 0-1.438-1.188-2.563-2.563-2.563-1.375 0-2.563 1.125-2.563 2.563 0 1.438 1.188 2.563 2.563 2.563Zm0-4.187c.875 0 1.625.75 1.625 1.625S21.875 6.125 21 6.125s-1.625-.75-1.625-1.625.75-1.625 1.625-1.625Zm20 27.188-3.625-12.188h-1.438v-4.75a3.761 3.761 0 0 0-3.75-3.75h-.25l-1.625 3.063h-.375l-1.625-3.063h-.25c-.5 0-1 .125-1.437.313-.625-1.25-1.938-2.126-3.375-2.126h-.375l-1.688 3.063h-.375L19.125 7.5h-.25c-1.438 0-2.75.813-3.375 2.125a3.707 3.707 0 0 0-1.438-.313h-.25l-1.624 3.063h-.376l-1.624-3.063h-.25a3.761 3.761 0 0 0-3.75 3.75v4.75H4.625L1 30.063h9.625v7h.938v-8.874c0-3 2.374-5.438 5.312-5.563l3 5.625h2.25l3-5.625c2.938.125 5.313 2.563 5.313 5.563V37h.937v-6.938H41Zm-11.688-16.75h1.5l1.625-3.063c1.438.125 2.563 1.375 2.563 2.813v4.75h-1.5V15h-.938v2.813h-5.124V15H26.5v2.813H25c.125-.438.188-.875.188-1.313 0-.438-.063-.813-.188-1.188v-2.187a2.8 2.8 0 0 1 2.563-2.813l1.75 3ZM21 13.187c1.875 0 3.375 1.5 3.375 3.376 0 1.875-1.5 3.375-3.375 3.375a3.361 3.361 0 0 1-3.375-3.375c0-1.875 1.5-3.375 3.375-3.375Zm-2.375-4.75L20.25 11.5h1.5l1.625-3.063c1 .063 1.875.75 2.313 1.626a3.73 3.73 0 0 0-1.5 3v.624c-.813-.874-1.938-1.437-3.188-1.437-1.25 0-2.375.563-3.188 1.438v-.626c0-1.25-.625-2.312-1.5-3a3.017 3.017 0 0 1 2.313-1.624ZM6.937 13.125A2.8 2.8 0 0 1 9.5 10.312l1.625 3.063h1.5l1.625-3.063c1.438.126 2.563 1.376 2.563 2.813v2.25a3.924 3.924 0 0 0-.188 1.188c0 .437.063.875.188 1.312h-1.5v-2.813h-.938v2.813H9.25v-2.813H8.5v2.813H6.937v-4.75Zm17.938 8.563h-.25l-3 5.625h-1.188l-3-5.625h-.25c-3.562 0-6.5 2.937-6.5 6.5v.937h-8.5L5.25 18.75h12.063a4.252 4.252 0 0 0 3.625 2.063c1.562 0 2.875-.813 3.625-2.063h12.062l3.063 10.375h-8.313v-.938c0-3.562-2.938-6.5-6.5-6.5Z" stroke="#FFF" stroke-width=".5" fill="#FFF" fill-rule="nonzero"/></svg>