<svg width="40" height="40" xmlns="http://www.w3.org/2000/svg"><path d="M33.66 13.98H27.97c0-.02.011-.035.011-.05V9.305c0-1.578-1.214-2.864-2.71-2.864H14.793c-1.496 0-2.711 1.286-2.711 2.864v4.62c0 .02.008.036.012.052H6.398a3.77 3.77 0 0 0-3.765 3.765v15.973a3.768 3.768 0 0 0 3.765 3.765H33.66a3.77 3.77 0 0 0 3.766-3.765V17.742a3.767 3.767 0 0 0-3.766-3.762Zm-20.066-.054V9.305c0-.746.535-1.352 1.195-1.352h10.477c.66 0 1.195.606 1.195 1.352v4.62c0 .02.008.036.012.052H13.582c.004-.016.012-.032.012-.051Zm22.32 19.793a2.257 2.257 0 0 1-2.254 2.254H6.398a2.257 2.257 0 0 1-2.253-2.254V17.742a2.257 2.257 0 0 1 2.253-2.254H33.66a2.257 2.257 0 0 1 2.254 2.254V33.72Zm-5.281-10.293c0 .418-.34.758-.758.758h-1.898v2.203a.759.759 0 0 1-1.516 0v-2.203H13.594v2.203a.759.759 0 0 1-1.516 0v-2.203H10.18a.759.759 0 0 1 0-1.516h1.898v-2.203a.759.759 0 0 1 1.516 0v2.203h12.87v-2.203a.759.759 0 0 1 1.516 0v2.203h1.899c.414 0 .754.34.754.758Z" fill="#FFF" fill-rule="nonzero"/></svg>