<svg width="40" height="40" xmlns="http://www.w3.org/2000/svg"><path d="M3.38 39.5A2.68 2.68 0 0 1 .7 36.82V25.18c0-1.48 1.2-2.68 2.68-2.68h9.02v1.592H2.909c-.36 0-.68.32-.68.68v12.591c0 .36.32.68.68.68h34.476c.36 0 .68-.32.68-.68v-12.59c0-.36-.32-.68-.68-.68H25.2V22.5h11.62c1.48 0 2.68 1.2 2.68 2.68v11.64c0 1.48-1.2 2.68-2.68 2.68H3.38Zm15.38-8.7c-.3 0-.62-.12-.84-.34L6.08 18.6c-.46-.46-.46-1.22 0-1.7l15.3-15.3c.22-.22.52-.36.84-.36.32 0 .62.12.84.36L34.9 13.44c.46.46.46 1.22 0 1.7l-15.3 15.3c-.22.24-.54.36-.84.36ZM7.438 17.672 18.742 28.88l14.991-14.7L22.251 3.107 7.438 17.672ZM17.86 20.38l-.02-.02-3.24-3.28c-.38-.397-.478-.9-.098-1.297.364-.38.96-.38 1.356 0l3.402 3.526c.04.02.06.02.08.02l5.046-4.985c.4-.4 1.008-.41 1.343-.09.335.318.231.906-.169 1.306l-4.8 4.8c-.4.4-.92.6-1.46.6-.52 0-1.04-.2-1.44-.58ZM30.1 30.9h-20c-.56 0-1-.352-1-.8 0-.448.44-.8 1-.8h20c.56 0 1 .352 1 .8 0 .448-.44.8-1 .8Z" fill="#FFF" fill-rule="nonzero"/></svg>