<svg width="32" height="32" xmlns="http://www.w3.org/2000/svg"><g fill="none" fill-rule="evenodd"><path d="M0 0h32v32H0z"/><path d="M3 3v26h26V3H3Zm21.6 6.16-1.395 1.337a.407.407 0 0 0-.155.392v9.822c-.025.15.035.3.155.392l1.362 1.336v.294h-6.849v-.293l1.41-1.37c.14-.139.14-.179.14-.39v-7.94l-3.922 9.96h-.531l-4.568-9.96v6.676a.92.92 0 0 0 .253.766l1.835 2.225v.293H7.133v-.292l1.836-2.226a.888.888 0 0 0 .236-.766v-7.72a.676.676 0 0 0-.22-.571L7.354 9.16v-.293h5.063l3.914 8.584 3.441-8.585H24.6v.294Z" fill="#51E0CF" fill-rule="nonzero"/></g></svg>