<svg width="32" height="32" xmlns="http://www.w3.org/2000/svg"><g fill="none" fill-rule="evenodd"><path d="M0 0h32v32H0z"/><path d="m20.578 22.422 2.297-10.828c.203-.953-.344-1.328-.969-1.094l-13.5 5.203c-.922.359-.906.875-.156 1.109l3.453 1.078 8.016-5.047c.375-.25.719-.109.438.141l-6.484 5.859-.25 3.563c.359 0 .516-.156.703-.344l1.687-1.625 3.5 2.578c.641.359 1.094.172 1.266-.594l-.001.001ZM30 16c0 7.734-6.266 14-14 14S2 23.734 2 16 8.266 2 16 2s14 6.266 14 14Z" fill="#51E0CF" fill-rule="nonzero"/></g></svg>