<svg width="32" height="32" xmlns="http://www.w3.org/2000/svg"><g fill="none" fill-rule="evenodd"><path d="M0 0h32v32H0z"/><g fill="#51E0CF"><path d="M4.028 4 5.75 6.448l7.649 10.86.91 1.29 6.145 8.726.476.676H28l-1.724-2.448-8.042-11.417-.909-1.291-5.752-8.167L11.096 4H4.028Zm11.359 13.372-.91-1.29L7.07 5.562h3.187l5.991 8.508.91 1.29 7.801 11.077h-3.186l-6.385-9.065Z"/><path d="M13.4 17.308 4 28h2.04l8.27-9.402 1.077-1.226-.91-1.29zM25.11 4l-1.746 1.975-6.039 6.869-1.078 1.226.91 1.29 1.077-1.225L27.15 4z"/></g></g></svg>